#!OML:ASF F:\VICON\USERDATA\INSTALL\rory3\rory3.ASF
:FULLY-SPECIFIED
:DEGREES
60
root 0.8976858934314842 18.019862279661115 23.84289669415101 -2.80866386314519 2.1376767013284823 -3.6149514646905794
lfemur -8.77993061655577 -3.230496533173653 -20.277420941775038
ltibia 24.422086412973528
lfoot -17.961630907868432 0.20956394795498579
ltoes -15.086351113330075
rfemur -6.318495415976671 1.9436731292082845 26.725786221219742
rtibia 31.330667842158697
rfoot 0.528622637003842 -10.20521704874334
rtoes 7.42416351565897
lowerback 10.349263085530868 0.756294656027581 2.2037659473614353
upperback -0.22759068487155917 1.341119829544065 1.5072254879248648
thorax -5.90353743689512 0.6577975892259204 -0.2716096718712466
lowerneck -16.380644703843167 -3.3741479885171928 -1.587538821876604
upperneck 21.816440070526635 -4.531082875908738 0.7147591120603687
head 9.801150638848222 -2.12478053534879 -0.07248430595778446
lclavicle -2.7003079517978257e-15 -2.151714706242199e-15
lhumerus -23.82527735466809 -1.3616320796638637 80.64742752132273
lradius 32.140542056270064
lwrist 9.48675161133799
lhand -29.596589700623113 19.959703805617018
lfingers 7.125020000000001
lthumb -2.7583521865931275 50.35778662622647
rclavicle -2.7003079517555234e-15 -2.1517147062127695e-15
rhumerus -32.39564841039824 -19.209144041529715 -78.37715407100237
rradius 24.954954123596472
rwrist 5.213897054940902
rhand -17.92736605813992 22.366819083325062
rfingers 7.125020000000001
rthumb 8.553861983890437 -6.923503238237581
61
root 0.9365700956700374 18.030108881724722 24.941653354978705 -2.8450818074672517 1.991224761493844 -3.357299397795562
lfemur -7.089513580654723 -3.2889429495334577 -20.631886934962864
ltibia 24.50459637752681
lfoot -18.233554877457244 1.088954136539603
ltoes -16.68999919540004
rfemur -7.194718743937632 1.9539574386100909 26.42884735192549
rtibia 30.994998657904766
rfoot 0.4033746814367962 -10.021414172570045
rtoes 6.597981167558574
lowerback 10.307342744468276 0.5813658386788969 1.9229410551815334
upperback -0.2524790947720228 1.0586954425905153 1.5086918263961944
thorax -5.867454337254925 0.5140018239499178 -0.0006252326285669518
lowerneck -16.401937985472372 -3.3732028127762894 -1.588750508091212
upperneck 21.89483048639968 -4.531231224028043 0.6444482867294102
head 9.840139977414744 -2.1276188599992816 -0.10160914646759497
lclavicle -2.7003079518022615e-15 -2.151714706244877e-15
lhumerus -23.945875229520027 -1.2108788664837733 80.93329514122887
lradius 31.947812841078942
lwrist 9.200763297098405
lhand -29.405995322115814 19.859715490845915
lfingers 7.125020000000001
lthumb -2.519981762929492 50.29211658536819
rclavicle -2.700307951756636e-15 -2.151714706213178e-15
rhumerus -33.098423971028744 -19.586912484790968 -78.051487766704
rradius 24.964435762352917
rwrist 4.972579776206052
rhand -17.9722294119957 22.44613354339501
rfingers 7.125020000000001
rthumb 8.38956524676954 -6.775734626587268
62
root 0.9644893861052073 18.038670761611414 26.12482569279126 -2.803068996525106 1.8853942567161293 -3.088978175169297
lfemur -5.537036988327432 -3.35872328436952 -21.034998422959276
ltibia 24.790479286492417
lfoot -18.37640295074236 1.792470018788098
ltoes -19.097991249676888
rfemur -8.17819791551563 1.8255430906051857 26.034091968279363
rtibia 30.637250440433586
rfoot 0.45258107822488647 -9.755301049362847
rtoes 5.818953276002791
lowerback 10.271459455418018 0.3870065496480709 1.5750423386031729
upperback -0.2996908593448478 0.76703182954903 1.5332816678246726
thorax -5.882293901429941 0.3797366755239828 0.33873559011577803
lowerneck -16.390153099388638 -3.3671053367316746 -1.587763107565956
upperneck 21.948872371686647 -4.52764975587766 0.585827697005966
head 9.85580145941521 -2.130536616760299 -0.12288616944039857
lclavicle -2.700307951806368e-15 -2.1517147062474135e-15
lhumerus -24.33438275697842 -1.4042190853147543 81.06012764285713
lradius 31.454256452204056
lwrist 9.12878317909285
lhand -29.295410235217915 19.601290405621473
lfingers 7.125020000000001
lthumb -2.333684354326568 50.13437614243457
rclavicle -2.7003079517624386e-15 -2.1517147062168995e-15
rhumerus -33.76750483375023 -20.051552384699583 -77.6493762921711
rradius 25.037922010072073
rwrist 4.614502179848905
rhand -17.953445432306165 22.55478369663102
rfingers 7.125020000000001
rthumb 8.377658293667498 -6.474974402362208
63
root 0.9889147665009754 18.0515390118667 27.30110215408348 -2.6536824519797766 1.8339909757180084 -2.9974931372367966
lfemur -4.394111401207173 -3.393334104796696 -21.203469061505626
ltibia 25.417924116937378
lfoot -18.599496409883177 2.305909940152551
ltoes -19.214354632169552
rfemur -9.122377599922654 1.7336930564852602 25.831689271744793
rtibia 29.709569269666062
rfoot 0.5292812916599328 -9.460041257137693
rtoes 4.876037662966384
lowerback 10.238472408156197 0.18102840828077907 1.3780105650700998
upperback -0.3211441678785386 0.4607396208557795 1.5671585470982827
thorax -5.895327188931062 0.2290304851159867 0.7011082650076749
lowerneck -16.301495802439536 -3.3502121382007988 -1.6203360669816793
upperneck 21.97370679222482 -4.50015742831513 0.5538102891269171
head 9.813770980380628 -2.1248677307550805 -0.10839197551078042
lclavicle -2.700307951800513e-15 -2.151714706243061e-15
lhumerus -24.706991033280687 -1.1913887523824793 81.29056371278551
lradius 30.79299674915068
lwrist 8.956038811292931
lhand -29.26795545223643 19.728207138687804
lfingers 7.125020000000001
lthumb -2.218345987918263 50.28943148126694
rclavicle -2.7003079517436314e-15 -2.1517147062036794e-15
rhumerus -34.377620233545876 -20.53331223648481 -77.29395906655641
rradius 25.114787093514444
rwrist 4.34031567624536
rhand -18.03948557985208 22.553925539961703
rfingers 7.125020000000001
rthumb 8.226226085313467 -6.3840139360356405
